<svg width="100" height="27" fill="none" xmlns="http://www.w3.org/2000/svg"><g clip-path="url(#a)"><mask id="b" style="mask-type:luminance" maskUnits="userSpaceOnUse" x="0" y="0" width="100" height="27"><path d="M100 .086H0V26.86h100V.086Z" fill="#fff"/></mask><g mask="url(#b)"><path d="M22.173 26.862a9698.152 9698.152 0 0 1-2.516-3.241c-.126-.164-.114-.245.05-.369l.179-.133c.09-.07.091-.07.024-.156l-.517-.65-.527-.662c-.099-.125-.099-.125-.228-.04a11.973 11.973 0 0 1-2.818 1.356c-.865.285-1.75.478-2.658.557-3.352.293-6.357-.577-8.96-2.702C2.214 19.2.917 17.13.317 14.637a10.393 10.393 0 0 1-.264-1.721c-.006-.095 0-.196-.053-.284v-1.006c.058.008.098.045.14.08.23.188.458.378.69.563.064.05.09.106.094.188.12 2.337.952 4.39 2.497 6.16 1.642 1.88 3.718 3.031 6.175 3.505.79.153 1.595.213 2.4.181 2.503-.1 4.737-.92 6.659-2.524 1.724-1.44 2.867-3.25 3.411-5.425a9.76 9.76 0 0 0 .267-1.794 9.989 9.989 0 0 0-.398-3.447c-.02-.07-.033-.122.04-.179.357-.282.71-.57 1.064-.858.018-.015.037-.034.072-.028.035.048.051.11.073.17.325.882.545 1.79.633 2.726.29 3.082-.552 5.83-2.489 8.249a11.21 11.21 0 0 1-1.828 1.796c-.094.074-.095.076-.02.17l1.054 1.323c.075.094.077.094.173.024.052-.038.101-.08.155-.115.114-.076.199-.066.29.035.046.051.086.108.128.163a8696.289 8696.289 0 0 1 2.383 3.068c.056.092.044.179-.035.253-.033.03-.068.057-.104.082l-1.06.791c-.03.023-.073.035-.082.08h-.21Z" fill="#F36F21"/><path d="M18.565.086c.046.046.11.038.165.052a1.357 1.357 0 0 1 .667 2.23 1.373 1.373 0 0 1-2.36-.649 1.36 1.36 0 0 1 .98-1.578c.053-.015.117-.008.161-.055h.387Z" fill="#000"/><path d="M54.178 13.688c0-1.982.02-3.964-.006-5.946-.03-2.322 1.633-4.443 3.85-5.057 1.716-.475 3.29-.135 4.668.988a5.407 5.407 0 0 1 1.875 2.949c.14.561.153 1.13.086 1.703-.118 1.013-.517 1.905-1.16 2.694a.307.307 0 0 1-.028.035c-.052.048-.05.084.011.128.137.099.266.207.388.322.95.893 1.565 1.97 1.765 3.259.302 1.95-.249 3.641-1.637 5.047-.871.883-1.944 1.4-3.178 1.582a5.113 5.113 0 0 1-.741.058c-1.446 0-2.892.002-4.337 0a1.552 1.552 0 0 1-1.507-1.124 1.798 1.798 0 0 1-.051-.484v-5.577l.002-.577Zm3.111 2.037v2.485c0 .035.002.07 0 .104-.002.054.02.083.078.08.03-.002.06 0 .09 0h2.413c.15 0 .298-.01.446-.032 1.373-.195 2.651-1.478 2.227-3.309a2.646 2.646 0 0 0-2.559-1.974c-.844-.002-1.688 0-2.533 0-.164 0-.162-.014-.162.162v2.484Zm1.252-5.91c.324-.016.73.017 1.137-.02 1.245-.113 2.408-1.446 1.738-2.997-.397-.922-1.48-1.48-2.618-1.157-.886.252-1.479 1.03-1.504 1.983-.018.695-.004 1.39-.004 2.085 0 .102.003.104.11.105h1.141Z" fill="#F36F21"/><path d="M45.444 21.749c-1.76-.01-3.342-.533-4.697-1.66-1.303-1.083-2.117-2.466-2.421-4.128-.254-1.389-.145-2.75.4-4.063.678-1.635 1.84-2.833 3.413-3.647a7.72 7.72 0 0 1 2.866-.833c1.26-.115 2.45.133 3.572.702 1.862.943 3.133 2.402 3.796 4.371.3.89.365 1.81.299 2.744-.174 2.45-1.983 5.394-5.356 6.284-.611.159-1.24.236-1.872.23Zm-.196-11.416c-.233.01-.465.04-.694.087-2.848.607-4.292 3.732-2.853 6.26.86 1.51 2.51 2.382 4.22 2.187 1.002-.115 1.873-.526 2.566-1.252.986-1.034 1.451-2.247 1.198-3.689a4.36 4.36 0 0 0-3.144-3.424 4.54 4.54 0 0 0-1.293-.17ZM94.915 7.03c.963 0 1.927.021 2.89-.006.864-.024 1.435.79 1.46 1.38.037.882-.773 1.519-1.432 1.512-1.838-.017-3.675-.005-5.513-.006a2.365 2.365 0 0 0-.445.037c-.529.1-.866.421-1.02.924-.14.458-.077.896.184 1.303.243.38.596.566 1.04.6.099.007.198.005.298.005h3.442c1.59 0 2.757.725 3.566 2.053.318.52.51 1.089.59 1.692.02.151.016.305.021.458.036.98-.194 1.889-.779 2.689-.64.874-1.516 1.4-2.567 1.653-.372.09-.752.125-1.136.124-1.843 0-3.685-.011-5.528.005-.817.007-1.325-.612-1.38-1.272-.048-.56.166-1.012.591-1.37.252-.211.549-.304.88-.304 1.773.002 3.546.003 5.32.001.229 0 .456-.015.677-.08.535-.155.875-.556.928-1.108a2.1 2.1 0 0 0-.049-.748 1.048 1.048 0 0 0-.614-.717 1.823 1.823 0 0 0-.633-.15c-.1-.007-.199-.006-.298-.007-1.172 0-2.344.002-3.517 0a3.62 3.62 0 0 1-1.557-.34c-1.163-.548-1.91-1.455-2.282-2.665-.76-2.474.705-4.678 2.65-5.402a4.1 4.1 0 0 1 1.442-.262c.923.001 1.847.002 2.77.001ZM86.394 16.643c0 1.07-.014 2.14.004 3.21.016.961-.868 1.58-1.638 1.51-.593-.053-1.13-.477-1.267-1.026a1.69 1.69 0 0 1-.042-.41l.001-5.74c.001-.819-.204-1.581-.652-2.269-.719-1.105-1.742-1.763-3.055-1.95-1.235-.177-2.36.111-3.334.896-.76.611-1.262 1.394-1.472 2.35-.062.286-.08.575-.08.867.002 1.928.003 3.855.003 5.783 0 .507-.21.904-.609 1.207-.665.502-1.672.35-2.16-.324a1.288 1.288 0 0 1-.234-.78v-5.635a7.319 7.319 0 0 1 1.29-4.19c1.088-1.598 2.585-2.61 4.49-2.992 2.471-.496 5.03.253 6.773 2.02.953.966 1.582 2.113 1.853 3.444.09.44.126.887.126 1.337.002.897.003 1.794.003 2.692ZM36.807 9.538c0 1.745-.005 3.491.001 5.236.012 3.256-2.274 5.87-5.354 6.529-.418.088-.842.13-1.27.15-.73.031-1.49-.56-1.493-1.442-.001-.437.135-.812.444-1.125a1.393 1.393 0 0 1 1.024-.435 3.527 3.527 0 0 0 2.018-.616c.813-.554 1.337-1.306 1.541-2.27.053-.25.066-.507.066-.764V4.121c0-.163-.005-.327.042-.484.162-.545.493-.943 1.06-1.076.984-.23 1.78.446 1.905 1.208.016.098.016.197.016.295v5.474ZM70.284 14.309v5.488c0 .212-.014.422-.084.626-.23.664-.885 1.08-1.619 1.024a1.552 1.552 0 0 1-1.41-1.559c0-3.722 0-7.445-.003-11.168-.002-1.034 1.058-1.817 2.098-1.447.6.213.997.768 1.015 1.4.004.162.002.325.002.488v5.148ZM6.557 18.828a20587.327 20587.327 0 0 1 .376-6.804c.032-.556.059-1.112.1-1.668.032-.446.138-.876.357-1.27.373-.672.954-1.05 1.709-1.177.069-.011.091.01.095.07l.036.501.102 1.622c.049.747.098 1.494.15 2.24l.118 1.769.15 2.226.148 2.225.028.368a.162.162 0 0 1-.063.154c-.48.405-.959.812-1.436 1.221-.05.044-.085.048-.14.007-.554-.408-1.11-.813-1.668-1.217-.055-.04-.074-.085-.067-.15.003-.038.003-.078.001-.117h.004ZM16.644 14.506l.142-2.688c.059-1.092.119-2.185.18-3.277.047-.842.096-1.683.147-2.524.026-.426.111-.841.296-1.228.353-.742.947-1.171 1.758-1.311.111-.02.112-.017.119.095.031.481.06.963.093 1.445.046.683.096 1.366.141 2.049.054.796.105 1.592.157 2.388a1844.933 1844.933 0 0 0 .27 4.01c.022.34.048.678.075 1.017a.176.176 0 0 1-.07.165c-.477.403-.952.807-1.424 1.213-.063.054-.104.047-.164.002-.547-.402-1.095-.802-1.644-1.2-.057-.04-.102-.08-.076-.156Z" fill="#000"/><path d="m14.268 5.648.036.48.12 1.798.127 1.946a10672.841 10672.841 0 0 1 .238 3.552l.12 1.768c.033.492.069.983.107 1.474a.189.189 0 0 1-.076.177c-.474.4-.945.8-1.414 1.204-.068.059-.11.05-.177.002-.542-.4-1.086-.797-1.631-1.192-.063-.045-.09-.09-.085-.17.03-.438.053-.876.077-1.314.05-.885.098-1.77.146-2.656a7069.766 7069.766 0 0 1 .208-3.734c.019-.34.027-.68.067-1.018.047-.389.145-.766.335-1.112.386-.704.996-1.083 1.802-1.205Z" fill="#F36F21"/><path d="M70.282 4.048c.022.807-.664 1.575-1.546 1.564-.9-.01-1.589-.773-1.568-1.602.022-.84.732-1.527 1.599-1.526.871.002 1.55.787 1.515 1.564ZM9.66 5.898a1.356 1.356 0 0 1-1.377 1.354 1.376 1.376 0 0 1-.963-.398 1.356 1.356 0 0 1-.402-.956A1.376 1.376 0 0 1 8.291 4.53c.758 0 1.37.612 1.368 1.367Z" fill="#000"/><path d="M12.008 3.646a1.35 1.35 0 0 1 .4-.965 1.37 1.37 0 0 1 .97-.4c.748 0 1.367.613 1.372 1.354a1.35 1.35 0 0 1-.398.966 1.371 1.371 0 0 1-.97.401 1.355 1.355 0 0 1-1.374-1.356Z" fill="#F36F21"/></g></g><defs><clipPath id="a"><path fill="#fff" transform="translate(0 .086)" d="M0 0h100v26.833H0z"/></clipPath></defs></svg>