<svg width="100" height="27" fill="none" xmlns="http://www.w3.org/2000/svg"><g clip-path="url(#a)"><mask id="b" style="mask-type:luminance" maskUnits="userSpaceOnUse" x="0" y="0" width="100" height="27"><path d="M100 0H0v26.94h100V0Z" fill="#fff"/></mask><g mask="url(#b)" fill="#fff"><path d="M22.173 26.94a12497.91 12497.91 0 0 1-2.516-3.261c-.126-.166-.114-.247.05-.372l.179-.134c.09-.07.091-.07.024-.156l-.517-.655-.527-.665c-.099-.126-.099-.126-.228-.041a11.938 11.938 0 0 1-2.818 1.364c-.865.287-1.75.482-2.658.561-3.352.294-6.357-.58-8.96-2.718C2.214 19.23.917 17.146.317 14.639a10.516 10.516 0 0 1-.264-1.732c-.006-.096 0-.197-.053-.286V11.61c.058.008.098.046.14.08.23.19.458.38.69.567.064.051.09.107.094.189.12 2.352.952 4.418 2.497 6.198 1.642 1.893 3.718 3.05 6.175 3.528.79.153 1.595.214 2.4.182 2.503-.101 4.737-.926 6.659-2.54 1.724-1.45 2.867-3.27 3.411-5.459a9.878 9.878 0 0 0 .267-1.805 10.11 10.11 0 0 0-.398-3.468c-.02-.071-.033-.123.04-.18.357-.284.71-.575 1.064-.864.018-.015.037-.034.072-.028.035.048.051.111.073.17.325.889.545 1.801.633 2.744.29 3.101-.552 5.866-2.489 8.3a11.24 11.24 0 0 1-1.828 1.808c-.094.074-.095.076-.02.171l1.054 1.33c.075.095.077.095.173.024.052-.038.101-.08.155-.115.114-.076.199-.066.29.035.046.052.086.109.128.164a8773.766 8773.766 0 0 1 2.383 3.087c.056.093.044.18-.035.255-.033.03-.068.057-.104.083l-1.06.795c-.03.023-.073.035-.082.08h-.21ZM18.565 0c.046.046.11.038.165.052.579.151 1.05.693 1.019 1.387a1.367 1.367 0 0 1-1.17 1.294 1.371 1.371 0 0 1-.563-2.677c.055-.015.118-.008.162-.056h.387ZM54.178 13.688c0-1.995.02-3.99-.006-5.984-.03-2.336 1.633-4.47 3.85-5.088 1.716-.478 3.29-.135 4.668.994a5.444 5.444 0 0 1 1.875 2.967c.14.565.153 1.138.086 1.714-.118 1.02-.517 1.917-1.16 2.711a.292.292 0 0 1-.028.035c-.052.048-.05.085.011.128.137.1.266.209.388.325.95.898 1.565 1.982 1.765 3.279.302 1.961-.249 3.664-1.637 5.079-.871.888-1.944 1.409-3.178 1.591a5.086 5.086 0 0 1-.741.058c-1.446 0-2.892.002-4.337 0a1.554 1.554 0 0 1-1.507-1.131 1.82 1.82 0 0 1-.051-.486v-5.612l.002-.58Zm3.111 2.049v2.5c0 .035.002.07 0 .105-.002.055.02.084.078.08h.09l2.413.001c.15 0 .298-.011.446-.033 1.373-.196 2.651-1.487 2.227-3.33-.21-.908-1.132-1.98-2.559-1.985-.844-.002-1.688 0-2.533 0-.164 0-.162-.015-.162.162v2.5Zm1.252-5.948c.324-.015.73.019 1.137-.019 1.245-.114 2.408-1.454 1.738-3.016-.397-.927-1.48-1.488-2.618-1.164-.886.254-1.479 1.037-1.504 1.996-.018.699-.004 1.398-.004 2.097 0 .103.003.106.11.106h1.141ZM45.444 21.799c-1.76-.009-3.342-.536-4.697-1.67-1.303-1.09-2.117-2.482-2.421-4.154-.254-1.397-.145-2.768.4-4.088.678-1.645 1.84-2.85 3.413-3.67a7.685 7.685 0 0 1 2.866-.838c1.26-.116 2.45.134 3.572.706 1.862.95 3.133 2.417 3.796 4.399.3.896.365 1.82.299 2.76-.174 2.466-1.983 5.428-5.356 6.323-.611.16-1.24.238-1.872.232Zm-.196-11.487a4.36 4.36 0 0 0-.694.088c-2.848.61-4.292 3.755-2.853 6.3.86 1.519 2.51 2.396 4.22 2.2 1.002-.116 1.873-.53 2.566-1.26.986-1.041 1.451-2.262 1.198-3.712a4.377 4.377 0 0 0-3.144-3.446 4.516 4.516 0 0 0-1.293-.17ZM94.919 6.991c.963 0 1.927.021 2.89-.006.864-.025 1.435.795 1.46 1.388.037.888-.773 1.529-1.433 1.522-1.837-.017-3.675-.005-5.512-.006a2.35 2.35 0 0 0-.445.037c-.529.101-.866.424-1.02.93-.14.46-.077.901.184 1.311.243.381.596.569 1.04.603.099.008.198.006.298.006h3.441c1.59-.001 2.757.73 3.567 2.066.318.522.51 1.095.59 1.702.02.152.016.307.021.46.036.987-.194 1.901-.779 2.706-.64.88-1.517 1.41-2.567 1.664-.372.09-.752.125-1.136.125-1.843-.001-3.686-.012-5.528.004-.817.007-1.325-.616-1.38-1.28-.048-.562.166-1.018.59-1.377.253-.213.55-.307.881-.306 1.773.002 3.546.002 5.32 0 .229 0 .455-.015.677-.08.535-.156.875-.56.928-1.115a2.128 2.128 0 0 0-.05-.753 1.053 1.053 0 0 0-.613-.721 1.815 1.815 0 0 0-.633-.152c-.1-.006-.199-.005-.298-.006-1.172 0-2.344.002-3.517-.001a3.601 3.601 0 0 1-1.557-.34c-1.163-.553-1.91-1.465-2.282-2.683-.76-2.49.705-4.707 2.65-5.435.46-.174.949-.264 1.441-.264.924.001 1.848.002 2.772.001ZM86.394 16.656c0 1.076-.014 2.153.004 3.23.016.967-.868 1.59-1.638 1.52-.593-.054-1.13-.48-1.267-1.033a1.71 1.71 0 0 1-.042-.413l.001-5.775c.001-.824-.204-1.591-.652-2.283-.719-1.113-1.742-1.774-3.055-1.963-1.235-.178-2.36.113-3.334.902-.76.615-1.262 1.403-1.472 2.365-.062.287-.08.579-.08.872l.003 5.819c0 .51-.21.91-.609 1.214-.665.506-1.672.353-2.16-.325a1.302 1.302 0 0 1-.234-.785V14.33a7.396 7.396 0 0 1 1.29-4.215c1.088-1.609 2.585-2.627 4.49-3.011 2.471-.499 5.03.254 6.773 2.032a6.796 6.796 0 0 1 1.853 3.466c.09.443.126.893.126 1.345l.003 2.709ZM36.811 9.511c0 1.757-.005 3.513.001 5.27.012 3.275-2.274 5.906-5.354 6.568a7.7 7.7 0 0 1-1.27.15 1.456 1.456 0 0 1-1.493-1.45c-.001-.44.134-.817.444-1.131a1.39 1.39 0 0 1 1.024-.439 3.512 3.512 0 0 0 2.018-.619c.813-.557 1.337-1.314 1.541-2.284.053-.253.066-.51.066-.769V4.061c0-.164-.005-.33.042-.488.162-.548.493-.948 1.06-1.082a1.545 1.545 0 0 1 1.904 1.216c.017.099.017.197.017.297V9.51ZM70.28 14.314v5.522c0 .214-.013.425-.084.63-.23.669-.885 1.087-1.619 1.03a1.556 1.556 0 0 1-1.41-1.568c0-3.746 0-7.492-.003-11.237-.002-1.04 1.058-1.829 2.098-1.457.6.215.997.773 1.015 1.409.005.164.002.327.002.491v5.18Z"/><path d="M6.561 18.864a19755.865 19755.865 0 0 1 .376-6.846c.032-.56.059-1.119.1-1.678.032-.448.138-.881.357-1.278.372-.676.954-1.056 1.709-1.184.069-.012.09.01.095.07l.036.504.102 1.632c.049.752.098 1.503.149 2.255l.12 1.78.148 2.239.15 2.239c.008.123.017.247.027.37a.164.164 0 0 1-.063.155c-.48.407-.959.817-1.436 1.23-.05.043-.085.047-.14.006-.554-.41-1.11-.818-1.668-1.224-.055-.041-.074-.086-.067-.15.003-.04.003-.08 0-.12h.005ZM16.64 14.512l.142-2.705.18-3.297c.047-.847.096-1.694.147-2.54a3.33 3.33 0 0 1 .296-1.235c.353-.747.947-1.179 1.758-1.32.112-.019.112-.016.12.096.03.485.06.97.092 1.454.047.687.096 1.374.142 2.062.053.8.104 1.602.156 2.403.039.593.078 1.187.12 1.78.049.752.099 1.503.15 2.255.022.341.048.682.075 1.023a.178.178 0 0 1-.07.166c-.476.405-.951.812-1.424 1.22-.063.055-.103.048-.164.003-.547-.405-1.094-.807-1.644-1.208-.057-.04-.102-.08-.076-.157ZM14.268 5.594l.036.482.12 1.81.127 1.958c.038.593.078 1.186.119 1.78l.119 1.793.12 1.78c.033.494.069.989.107 1.482a.19.19 0 0 1-.076.179c-.474.401-.945.805-1.414 1.21-.068.06-.11.052-.177.003-.542-.402-1.086-.802-1.631-1.199-.063-.046-.09-.09-.085-.171.03-.44.053-.881.077-1.322.05-.89.098-1.782.146-2.673l.063-1.173.145-2.584c.019-.342.027-.684.067-1.024a3.07 3.07 0 0 1 .335-1.119c.386-.709.996-1.09 1.802-1.212ZM70.278 3.987c.022.813-.664 1.585-1.546 1.574a1.597 1.597 0 0 1-1.567-1.612 1.593 1.593 0 0 1 1.598-1.535c.871.001 1.55.792 1.515 1.573ZM9.663 5.844a1.36 1.36 0 0 1-1.376 1.363 1.372 1.372 0 0 1-1.365-1.363 1.38 1.38 0 0 1 1.373-1.375c.757 0 1.37.615 1.368 1.375ZM12.008 3.584a1.366 1.366 0 0 1 1.37-1.373c.748 0 1.367.617 1.372 1.363a1.365 1.365 0 0 1-1.368 1.375 1.359 1.359 0 0 1-1.374-1.365Z"/></g></g><defs><clipPath id="a"><path fill="#fff" d="M0 0h100v27H0z"/></clipPath></defs></svg>