<svg width="49" height="49" fill="none" xmlns="http://www.w3.org/2000/svg"><rect width="49" height="49" rx="2" fill="#fff"/><g clip-path="url(#a)"><path d="M28.243 9.067c-.156.108-.23.451-.151.72.104.347.389.407.54.108.216-.415-.079-1.044-.389-.828Zm.211.315c.102.11.06.391-.057.391-.151 0-.206-.257-.086-.394.05-.057.091-.057.143.003ZM29.43 9.52a5.62 5.62 0 0 0-.094.625c.01.01 1.938.322 1.946.314a6.11 6.11 0 0 0 .104-.675c-.01-.013-1.865-.32-1.922-.32-.01 0-.026.026-.034.057Z" fill="#004098"/><path d="M26.48 9.56c-.357.01-.36.01-.344.066.008.031.016.202.016.377v.32l.889-.016.892-.018-.018.199c-.04.45-.144.894-.274 1.18a1.821 1.821 0 0 1-1.103.993l-.172.056.03.109c.019.056.069.209.108.338.039.126.08.242.091.252.01.013.107-.018.216-.067.801-.366 1.286-1.057 1.503-2.145a6.05 6.05 0 0 0 .107-.863c0-.09-.008-.103-.063-.103-.162 0-.337-.22-.368-.462a2.161 2.161 0 0 0-.028-.178l-.01-.057-.556.006c-.303.002-.715.01-.916.012ZM34.223 10.668a8.6 8.6 0 0 1-.902.663c-.48.286-1.09.523-1.533.593a4.517 4.517 0 0 0-.25.046c-.003.005 0 .154.007.335.01.317.013.33.068.33.107-.003.516-.103.78-.193.148-.05.273-.09.284-.09.008 0-.141.402-.331.894l-.347.895.224.085c.123.049.227.082.232.077.005-.005.204-.513.44-1.127.238-.616.439-1.131.45-1.15.01-.018.153-.118.32-.224.3-.188.623-.422.814-.588l.099-.087-.097-.27a3.122 3.122 0 0 0-.111-.29c-.008-.007-.074.037-.147.101ZM29.036 10.601c-.016.049-.115.652-.11.66.003.005.405.072.893.15.485.08.891.152.902.162.029.03-.151.433-.28.624-.263.392-.63.567-1.191.567h-.256v.327c0 .183.01.346.024.366.018.029.07.034.253.018.863-.064 1.4-.482 1.778-1.384.165-.39.368-1.096.326-1.132a22.79 22.79 0 0 0-1.116-.19 70.205 70.205 0 0 1-1.152-.189c-.037-.007-.066 0-.07.021ZM35.629 11.841c-.365.48-.748.928-1.093 1.279-.367.376-.62.59-.93.786l-.204.129v.33c0 .183.005.332.013.332s.073-.036.148-.082c.642-.384 1.31-1.075 2.486-2.568l.125-.162-.102-.103a1.655 1.655 0 0 0-.172-.155l-.068-.049-.203.263ZM36.409 12.537c-.5.817-.897 1.573-1.114 2.117-.117.293-.279.807-.315 1.002l-.019.093.321-.1c.175-.054.329-.108.337-.119a.766.766 0 0 0 .05-.185c.04-.217.237-.81.37-1.125.12-.288.375-.796.524-1.051.057-.098.106-.204.11-.232.004-.031.057-.155.117-.274.182-.353.18-.33.013-.402a1.139 1.139 0 0 0-.167-.064c-.01 0-.112.155-.227.34ZM37.084 12.308a6.21 6.21 0 0 1-.164.358l-.125.247.13.031a.5.5 0 0 0 .139.024c.062-.07.312-.666.289-.689a.392.392 0 0 0-.12-.046l-.104-.031-.045.106ZM37.41 12.516a10.17 10.17 0 0 1-.156.356l-.094.199.096.028a.99.99 0 0 0 .126.026c.015 0 .08-.114.146-.253.213-.456.213-.443.044-.49l-.097-.025-.065.16ZM38.266 13.8c-.157.073-.292.134-.295.137-.005.005.016.11.047.235.031.123.065.35.075.502l.016.276.324-.144.323-.145-.018-.208c-.016-.199-.118-.663-.164-.745-.019-.029-.074-.013-.308.092ZM26.217 14.184c-3.985.25-8.059 2.153-11.019 5.144-1.202 1.216-2.063 2.4-2.764 3.813-.678 1.358-1.064 2.634-1.218 4.021-.05.464-.058 1.416-.01 1.844.28 2.668 1.687 4.872 3.99 6.249 1.011.608 2.31 1.072 3.601 1.289.816.137 1.085.157 2.204.155 1.124 0 1.473-.026 2.4-.18 3.071-.511 6.164-2.002 8.574-4.133a22.37 22.37 0 0 0 1.646-1.666c2.871-3.398 3.917-7.38 2.806-10.686-.652-1.936-1.956-3.493-3.795-4.524-1.765-.993-4.084-1.473-6.415-1.325Zm1.413 1.21c2.71.131 4.945 1.103 6.364 2.771 1.377 1.619 1.914 3.733 1.53 6.02-.333 1.987-1.309 3.96-2.86 5.785a21.072 21.072 0 0 1-1.636 1.63c-1.95 1.654-4.245 2.86-6.577 3.462-1.239.32-2.274.45-3.515.45-.827 0-1.247-.033-1.946-.151-3.578-.609-6.04-2.919-6.517-6.105-.345-2.315.427-4.966 2.136-7.337 2.714-3.767 7.378-6.32 11.92-6.525.23-.01.454-.021.496-.021.045-.003.316.008.605.02Z" fill="#004098"/><path d="M27.834 18.18c-1.988.183-4.559.965-6.729 2.042-.271.134-.516.26-.542.281-.045.034-.037.041.088.124a2.412 2.412 0 0 1 1.054 1.81.93.93 0 0 0 .026.175c.005 0 .107-.041.227-.093 1.262-.539 2.658-1.01 3.636-1.232.667-.152.92-.18 1.562-.18.67 0 .832.025 1.181.195.691.338.936 1.217.566 2.045-.276.616-1.004 1.384-1.995 2.106-1.34.977-3.38 2.065-5.579 2.975l-.245.1.013.55c.008.301.019.552.026.56.016.015.88-.207 1.573-.403.772-.22 2.136-.673 2.843-.946.884-.34 1.45-.59 2.282-1.003 3.046-1.51 4.803-3.238 5.122-5.035.091-.51.076-.956-.052-1.47-.384-1.528-1.508-2.4-3.362-2.603-.277-.031-1.359-.029-1.695.002ZM17.18 29.898c-.352.105-1.228.325-1.526.381-.114.023-.36.065-.547.09l-.34.05.606.002c.626.003 1.145-.023 1.765-.088.199-.02.37-.038.384-.038.013 0 .023-.111.023-.245 0-.18-.008-.245-.031-.243-.018.003-.17.044-.334.09ZM37.228 14.344c-.261.122-.282.137-.266.191.039.157.09.58.09.748 0 .103.006.188.011.188.04 0 .631-.289.637-.31.036-.108-.107-.93-.165-.943a1.933 1.933 0 0 0-.307.126ZM38.905 15.5c-.438.236-.986.453-1.33.525-.666.137-1.065.026-1.646-.466-.034-.031-.076.005-.318.273l-.282.31.178.128c.667.487 1.387.55 2.396.204.464-.157 1.252-.521 1.242-.573a3.815 3.815 0 0 1-.006-.262c0-.135-.008-.245-.018-.245-.013 0-.11.049-.216.105ZM38.626 16.961c-.19.08-.347.157-.347.17 0 .016.216.539.482 1.163.31.73.493 1.132.514 1.126.076-.018.675-.273.688-.29.008-.014-.192-.509-.443-1.1-.519-1.229-.514-1.219-.535-1.216-.007 0-.172.067-.36.147ZM16.802 38.184a.671.671 0 0 0-.514.404c-.062.14-.125.423-.125.568v.11h.389l.015-.15c.024-.18.107-.38.18-.43.073-.051.224-.046.292.008.107.085.146.18.149.348.003.237-.063.34-.454.709-.182.175-.37.374-.415.443a1.42 1.42 0 0 0-.192.573l-.019.15h1.516v-.465h-.968l.047-.08c.026-.044.195-.219.38-.392.264-.244.348-.34.413-.469.18-.363.14-.843-.094-1.116a.69.69 0 0 0-.6-.212ZM18.959 38.186c-.418.078-.616.518-.618 1.364 0 .763.14 1.18.459 1.35.117.065.154.073.32.063.154-.008.212-.021.3-.08.277-.18.42-.635.42-1.328 0-.967-.323-1.47-.881-1.369Zm.25.477c.089.06.157.217.19.428.034.222.016.992-.026 1.132-.133.428-.477.397-.581-.05-.055-.234-.045-1.062.013-1.252.08-.258.25-.366.404-.258ZM21.176 38.186c-.29.054-.462.276-.569.737-.065.269-.065 1.014-.003 1.292.115.508.345.753.705.753.521 0 .774-.516.74-1.521-.018-.575-.099-.859-.305-1.093-.122-.137-.357-.206-.568-.168Zm.294.526c.13.134.157.281.157.877 0 .543-.018.657-.125.814-.157.232-.407.127-.488-.209-.081-.332-.055-1.126.044-1.369.086-.216.269-.265.412-.113ZM23.39 38.186c-.24.044-.42.242-.522.57-.075.25-.117.678-.096 1.013.052.815.294 1.199.753 1.199.496 0 .749-.477.749-1.405 0-.985-.318-1.48-.884-1.377Zm.281.503c.141.116.173.278.173.874 0 .595-.027.742-.157.876-.11.119-.214.121-.323.01-.086-.084-.128-.2-.162-.46-.05-.37-.013-.955.073-1.164.08-.2.25-.257.396-.136ZM25.666 38.184c-.352.051-.568.368-.625.907l-.019.175h.425v-.123c0-.16.066-.346.15-.428.145-.147.383-.052.448.18.039.134.036.183-.013.345-.04.127-.079.176-.428.516-.475.459-.553.59-.597.998l-.019.162h1.502v-.464h-.967l.076-.11c.044-.06.216-.238.388-.395.347-.322.43-.451.483-.753a.847.847 0 0 0-.003-.353c-.086-.464-.396-.72-.8-.657ZM27.818 38.183c-.308.057-.535.351-.6.779-.055.366.058.755.266.93.243.207.55.186.751-.048l.084-.1-.016.128c-.057.462-.182.683-.383.683-.123 0-.214-.085-.26-.237l-.03-.098h-.391l.018.119c.021.16.105.34.206.446a.582.582 0 0 0 .446.183c.353 0 .577-.227.725-.74.053-.178.06-.258.06-.691 0-.436-.007-.513-.06-.696-.073-.248-.15-.387-.286-.508a.639.639 0 0 0-.53-.15Zm.276.495c.113.086.17.238.17.447 0 .373-.206.585-.446.461-.162-.083-.245-.462-.156-.714.078-.225.279-.315.433-.194ZM32.28 38.183c-.31.057-.524.349-.587.792l-.018.136h.389l.034-.16c.06-.309.295-.43.482-.244.227.224.084.61-.227.61h-.099v.388h.1c.281 0 .432.25.344.57-.06.208-.292.311-.465.203a.49.49 0 0 1-.187-.34c0-.14-.016-.15-.225-.15h-.193v.072c0 .122.053.361.105.482.07.163.214.307.37.374.19.08.482.065.654-.036.254-.144.395-.43.395-.789-.003-.296-.084-.45-.319-.605a.515.515 0 0 1 .084-.096c.234-.232.219-.722-.032-1.005a.732.732 0 0 0-.605-.202ZM29.686 38.24a43.044 43.044 0 0 0-.196 1.431c0 .026.05.034.19.034.18 0 .196-.006.227-.067.086-.155.31-.186.454-.062.292.255.154.954-.188.954-.146 0-.292-.145-.331-.33l-.018-.083h-.42l.018.132c.06.44.347.719.746.719.297 0 .514-.15.655-.449.135-.291.15-.59.049-.943-.136-.457-.592-.637-.905-.354-.07.062-.068.067-.034-.216.047-.374-.01-.333.47-.333h.417v-.464h-.56c-.429 0-.567.008-.575.031Z" fill="#004098"/><path d="M24.224 10.82c-.094.02-.172.039-.175.044a.675.675 0 0 0 .021.131c.019.09.019.13-.002.145a14.6 14.6 0 0 1-.644.131l-.616.114.018.116c.037.245.07.36.105.36.02 0 .31-.05.644-.115s.615-.116.628-.116c.01 0 .019.028.019.064 0 .06-.01.064-.123.064-.542.003-.793.686-.412 1.13.107.126.256.19.433.19a.638.638 0 0 0 .235-.04c.104-.052.117-.042.05.043-.074.09-.282.186-.556.253-.125.03-.225.062-.222.072.076.155.209.39.224.4.042.025.324-.06.517-.153.24-.116.433-.286.519-.464.101-.2.096-.49-.008-.804-.073-.217-.206-.825-.185-.843.005-.005.167-.039.36-.075.19-.039.354-.072.36-.08a2.483 2.483 0 0 0-.079-.469 3.149 3.149 0 0 0-.33.054c-.418.083-.41.083-.431-.02-.04-.199-.042-.199-.35-.132Zm.029 1.354c.117.062.164.33.076.438-.06.075-.212.08-.29.01-.13-.116-.12-.36.024-.438.083-.044.12-.046.19-.01ZM21.953 11.63a4.59 4.59 0 0 1-.381.126c-.016.002-.05-.05-.073-.11l-.044-.114-.232.077-.233.075.04.105c.02.057.036.114.036.124 0 .01-.214.093-.475.18-.263.09-.48.166-.482.168-.005.003.086.286.135.418.008.023.152-.016.499-.134a6.64 6.64 0 0 1 .493-.16.906.906 0 0 1 .06.188c-.006.003-.206.072-.452.155-.242.08-.448.152-.453.155-.021.018.135.422.167.422.018 0 .216-.064.443-.141.224-.078.417-.142.427-.142.016 0 .081.11.081.139 0 .005-.05.023-.11.041-.283.083-.529.279-.594.475a.797.797 0 0 0-.02.247c.03.43.45.65.936.49.221-.075.352-.165.443-.304.073-.109.078-.137.068-.271-.013-.15-.013-.152.05-.137.036.01.166.065.291.124.126.06.238.108.25.108.024.003.144-.415.147-.5 0-.067-.662-.283-.866-.283-.06 0-.083-.016-.112-.085-.091-.22-.104-.207.24-.323.17-.056.339-.116.378-.131l.07-.026-.07-.206c-.037-.116-.084-.209-.1-.209-.017 0-.184.052-.37.116-.185.064-.349.116-.362.116-.029 0-.089-.175-.065-.19a9.09 9.09 0 0 1 .279-.094c.143-.046.32-.105.396-.134l.133-.049-.07-.211c-.042-.124-.089-.214-.11-.217-.02 0-.195.055-.388.122Zm-.258 2.06c.041.139.015.219-.092.27-.115.054-.284.054-.328 0-.021-.02-.034-.075-.034-.118 0-.096.096-.186.242-.222.162-.044.178-.039.212.07ZM17.905 13.027c-.128.06-.23.116-.23.129 0 .013.199.42.441.905.366.732.462.907.574 1.028.167.18.271.245.436.276.174.034.375-.005.607-.113.347-.163.522-.348.629-.66.073-.212.076-.596.008-.861l-.047-.18-.253-.008c-.141-.003-.256.002-.256.012s.024.106.052.212c.133.492.021.817-.339 1.003-.21.108-.326.103-.464-.026-.089-.085-.417-.717-.761-1.477a5.298 5.298 0 0 0-.157-.325c-.008-.01-.115.028-.24.085ZM16.606 14.068c-.336.222-.615.413-.62.426-.006.015.198.34.27.43.003.006.288-.178.635-.404l.628-.415-.122-.186a2.593 2.593 0 0 0-.15-.22c-.023-.025-.169.06-.64.37ZM15.438 14.61c-.117.064-.214.129-.214.142 0 .036.305.585.55.99.313.52.89 1.302.96 1.302.018 0 .308-.217.376-.282.01-.01-.042-.087-.118-.172-.357-.402-.803-1.073-1.14-1.715l-.2-.381-.214.116ZM18.22 15.229c-.051.061-.513.381-.646.448-.17.083-.282.08-.357-.013a.7.7 0 0 1-.115-.348c0-.039-.013-.051-.037-.044-.02.008-.12.024-.224.034l-.188.018.019.144c.036.294.192.585.38.714.086.06.144.075.282.083.203.01.365-.041.644-.204.22-.131.61-.412.61-.44 0-.042-.273-.434-.302-.434-.016 0-.047.018-.065.042ZM14.442 15.742c-.298.082-.553.317-1.098 1-.402.505-.384.48-.347.503l.227.167c.11.085.208.145.221.137a4.01 4.01 0 0 0 .24-.33c.3-.436.585-.781.728-.877a.521.521 0 0 1 .516-.051.96.96 0 0 1 .384.435c.07.201.055.361-.052.578-.081.16-.154.247-.457.544l-.36.356.209.157.209.157.174-.152c.36-.317.647-.69.78-1.016.057-.142.065-.19.055-.42-.008-.237-.018-.278-.107-.461a1.465 1.465 0 0 0-.631-.653.983.983 0 0 0-.691-.074ZM11.876 17.66c-.081.1-.147.19-.147.2 0 .011.063.065.139.12.073.053.174.128.221.167l.089.072-.25.302-.248.301-.196-.167a1.338 1.338 0 0 0-.219-.168c-.015 0-.094.078-.172.173l-.146.175.11.09c.062.05.159.132.216.184l.102.095-.123.147a1.034 1.034 0 0 0-.122.168c0 .01.083.087.185.17l.185.15.083-.101c.045-.057.105-.13.133-.16l.053-.06.339.287c.367.309.55.438.688.482.216.075.457.002.689-.201.125-.111.826-.923.826-.96 0-.02-.367-.33-.393-.33a.404.404 0 0 0-.084.101c-.107.16-.571.701-.704.82-.068.062-.144.11-.167.11-.078 0-.222-.102-.568-.396-.293-.248-.324-.284-.293-.322l.253-.31.217-.268.167.17c.088.09.164.188.164.214 0 .026-.065.106-.146.18l-.143.135.177.144c.096.08.188.145.2.145.016 0 .11-.086.212-.189.355-.355.329-.549-.136-.987l-.193-.183.133-.157.133-.158-.185-.154a1.417 1.417 0 0 0-.203-.158.962.962 0 0 0-.139.158l-.122.152-.138-.111a11.416 11.416 0 0 0-.235-.18l-.094-.07-.148.178ZM10.324 20.14a.775.775 0 0 0-.146.03c-.008.008.039.467.047.472a.489.489 0 0 0 .122-.018c.342-.08.991.109 1.573.452.14.082.258.146.263.141.005-.005.058-.105.12-.221.091-.165.11-.217.084-.245-.058-.07-.754-.405-1.023-.495-.422-.14-.704-.17-1.04-.116ZM9.299 21.527c-.107.144-.141.203-.12.226.073.088.923.622 1.202.753.41.196.623.26.866.26.219 0 .308-.025.415-.123.213-.198.193-.51-.06-.884a3.957 3.957 0 0 0-.201-.276l-.076-.085-.208.093a3.226 3.226 0 0 0-.217.103.806.806 0 0 0 .123.17c.268.327.292.487.078.487-.235 0-.796-.291-1.333-.688-.159-.119-.297-.22-.305-.224-.008-.006-.083.08-.164.188ZM9.421 22.68c-.07.17-.167.494-.185.628-.01.072-.026.121-.034.106a2.502 2.502 0 0 0-.448-.183c-.008 0-.068.131-.128.288l-.117.297a.737.737 0 0 1-.152-.072l-.146-.078-.107.207c-.057.113-.104.219-.104.232 0 .013.076.054.167.095l.167.07-.065.17a1.67 1.67 0 0 0-.07.206c-.003.039.43.217.456.188a1.21 1.21 0 0 0 .062-.147.783.783 0 0 1 .065-.15c.04-.043.926.522 1.336.852.11.09.206.162.21.162.032 0 .335-.394.314-.407-.013-.01-.164-.119-.336-.24-.376-.27-.66-.451-1.041-.668a9.35 9.35 0 0 1-.297-.17 2.583 2.583 0 0 1 .11-.312l.12-.304.002.17c0 .201.005.204.292.204h.172l.018-.163c.024-.221.081-.43.185-.685.05-.119.086-.222.081-.225a4.9 4.9 0 0 0-.464-.165c-.013 0-.04.042-.063.093Z" fill="#8D93C8"/><path d="M10.817 23.262c-.089.288-.227.616-.293.683-.083.09-.169.075-.286-.046l-.102-.106-.167.108c-.196.127-.193.127.01.343.225.237.467.304.713.193.169-.077.276-.2.396-.464.094-.198.276-.672.276-.711 0-.02-.422-.186-.474-.186a.753.753 0 0 0-.073.186ZM19.306 24.99c1.35 0 2.445-1.082 2.445-2.417 0-1.334-1.095-2.416-2.445-2.416-1.35 0-2.445 1.082-2.445 2.416 0 1.335 1.094 2.417 2.445 2.417ZM17.506 27.987c0-.96.788-1.74 1.76-1.74h.079c.972 0 1.76.78 1.76 1.74v5.975h-3.599v-5.975ZM21.105 34.474c-1.306.093-2.953-.31-3.599-.512h3.6v.512Z" fill="#8D93C8"/></g><defs><clipPath id="a"><path fill="#fff" transform="translate(8 9)" d="M0 0h32v32H0z"/></clipPath></defs></svg>
